<svg xmlns="http://www.w3.org/2000/svg" xmlns:xlink="http://www.w3.org/1999/xlink" width="59.5" height="19.1484375"><path stroke="white" d="M8.24 2.99L8.24 2.99Q7.87 4.52 7.38 5.34L7.38 5.34Q7.15 5.73 6.93 5.73L6.93 5.73Q6.84 5.73 6.72 5.70L6.72 5.70Q6.13 5.52 6.13 5.27L6.13 5.27Q6.13 5.14 6.29 5.10L6.29 5.10Q6.98 4.07 7.10 2.63L7.10 2.63Q6.67 2.24 6.29 2.24L6.29 2.24Q5.48 2.23 4.37 3.67L4.37 3.67Q3.34 5.02 2.59 6.86L2.59 6.86Q1.81 8.78 1.84 10.06L1.84 10.06Q1.85 10.80 2.29 11.17L2.29 11.17Q2.61 11.44 3.02 11.44L3.02 11.44Q3.25 11.44 3.55 11.34L3.55 11.34Q4.30 11.11 5.29 10.44L5.29 10.44Q6.23 9.80 6.85 9.13L6.85 9.13Q7.05 8.92 7.09 8.59L7.09 8.59Q7.11 8.42 7.24 8.42L7.24 8.42Q7.35 8.42 7.41 8.56L7.41 8.56Q7.69 9.27 7.69 9.54L7.69 9.54Q7.69 9.80 7.48 10.02L7.48 10.02Q7.34 10.16 6.81 10.56L6.81 10.56Q5.16 11.80 3.97 12.11L3.97 12.11Q3.60 12.20 3.30 12.20L3.30 12.20Q2.66 12.20 2.32 11.77L2.32 11.77Q0.80 11.20 0.80 10.03L0.80 10.03Q0.80 8.14 1.79 5.97L1.79 5.97Q2.64 4.09 3.89 2.66L3.89 2.66Q5.09 1.29 5.84 1.23L5.84 1.23Q6.12 1.21 6.48 1.46L6.48 1.46Q6.52 1.49 7.20 2.05L7.20 2.05Q7.24 1.73 7.41 1.73L7.41 1.73Q7.60 1.73 8.05 2.08L8.05 2.08Q8.33 2.30 8.33 2.50L8.33 2.50Q8.33 2.63 8.24 2.99ZM13.42 7.05L13.42 7.05Q13.41 7.75 13.09 8.90L13.09 8.90Q12.58 10.71 11.65 11.71L11.65 11.71Q11.16 12.24 10.55 12.24L10.55 12.24Q10.32 12.24 9.95 12.14L9.95 12.14Q9.22 12.09 8.76 11.68L8.76 11.68Q8.26 11.23 8.29 10.52L8.29 10.52Q8.32 9.69 8.86 8.20L8.86 8.20Q9.45 6.59 10.09 5.88L10.09 5.88Q10.40 5.53 10.59 5.53L10.59 5.53Q10.86 5.53 11.45 6.08L11.45 6.08Q11.62 6 12.13 5.79L12.13 5.79Q12.38 5.70 12.52 5.70L12.52 5.70Q12.82 5.70 13.20 6.27L13.20 6.27Q13.44 6.63 13.42 7.05ZM12.52 7.28L12.52 7.28Q12.58 6.76 12.58 6.62L12.58 6.62Q12.58 6.29 12.38 6.29L12.38 6.29Q12.30 6.29 12.17 6.32L12.17 6.32L10.96 6.81Q10.75 6.90 10.72 6.90L10.72 6.90Q10.66 6.90 10.59 6.75L10.59 6.75Q10.14 7.30 9.75 8.35L9.75 8.35Q9.45 9.17 9.33 9.82L9.33 9.82Q9.24 10.26 9.24 10.62L9.24 10.62Q9.24 11.82 9.98 11.79L9.98 11.79Q10.28 11.78 10.63 11.55L10.63 11.55Q11.28 11.11 11.85 9.77L11.85 9.77Q12.40 8.52 12.52 7.28ZM19.47 6.48L19.47 6.48Q17.07 18.92 13.23 18.91L13.23 18.91Q11.85 18.91 10.24 17.39L10.24 17.39Q10.09 17.25 10.09 17.10L10.09 17.10Q10.09 16.88 10.30 16.88L10.30 16.88Q10.41 16.88 10.52 16.96L10.52 16.96Q11.79 18.05 12.80 18.05L12.80 18.05Q16.02 18.05 18.16 8.59L18.16 8.59Q16.86 10.84 15.89 11.80L15.89 11.80Q15.50 12.20 15.20 12.20L15.20 12.20Q14.91 12.20 14.50 11.89L14.50 11.89Q13.76 11.52 13.79 10.69L13.79 10.69Q13.84 9.66 14.58 8.15L14.58 8.15Q15.30 6.67 16.09 5.92L16.09 5.92Q16.54 5.50 16.90 5.50L16.90 5.50Q17.16 5.50 17.48 5.73L17.48 5.73Q17.53 5.77 18.11 6.29L18.11 6.29Q18.23 6.39 18.23 6.49L18.23 6.49Q18.23 6.63 18.04 6.63L18.04 6.63Q17.92 6.63 17.77 6.56L17.77 6.56Q17.54 6.44 17.31 6.44L17.31 6.44Q16.98 6.44 16.72 6.67L16.72 6.67Q16.15 7.17 15.52 8.30L15.52 8.30Q14.84 9.53 14.69 10.55L14.69 10.55Q14.65 10.82 14.65 11.02L14.65 11.02Q14.65 11.60 14.96 11.60L14.96 11.60Q15.17 11.60 15.41 11.39L15.41 11.39Q16.34 10.59 17.25 9.09L17.25 9.09Q18.10 7.70 18.46 6.53L18.46 6.53Q18.59 6.12 18.59 5.74L18.59 5.74Q18.59 5.45 18.73 5.45L18.73 5.45Q18.88 5.45 19.31 5.77L19.31 5.77Q19.57 5.97 19.47 6.48ZM26.12 9.22L26.12 9.22Q25.65 9.93 24.90 11.28L24.90 11.28Q24.76 11.63 24.63 11.98L24.63 11.98Q24.52 12.23 24.34 12.23L24.34 12.23Q24.20 12.23 23.92 12.11L23.92 12.11Q23.62 11.98 23.62 11.86L23.62 11.86Q23.62 11.80 23.72 11.62L23.72 11.62Q24.23 10.59 24.63 9.05L24.63 9.05Q25.05 7.43 24.99 6.58L24.99 6.58Q24.98 6.23 24.84 6.23L24.84 6.23Q24.73 6.23 24.53 6.43L24.53 6.43Q22.56 8.35 21.13 11.57L21.13 11.57Q20.95 11.97 20.70 11.97L20.70 11.97Q20.53 11.97 20.13 11.77L20.13 11.77Q19.98 11.70 19.97 11.64L19.97 11.64Q19.97 11.61 20.05 11.42L20.05 11.42Q20.51 10.43 20.95 8.91L20.95 8.91Q21.43 7.26 21.49 6.34L21.49 6.34Q21.51 6.05 21.48 6.05L21.48 6.05Q21.47 6.05 21.26 6.27Q21.05 6.48 20.67 6.81L20.67 6.81Q20.60 6.88 20.52 6.88L20.52 6.88Q20.41 6.88 20.41 6.80L20.41 6.80Q20.41 6.73 20.48 6.66L20.48 6.66Q20.82 6.23 21.37 5.59L21.37 5.59Q21.48 5.45 21.61 5.45L21.61 5.45Q21.80 5.45 21.94 5.73L21.94 5.73Q22.57 5.91 22.53 6.30L22.53 6.30Q22.45 7.16 21.65 9.41L21.65 9.41Q22.17 8.40 23.17 7.15Q24.17 5.91 24.66 5.68L24.66 5.68Q24.90 5.57 25 5.57L25 5.57Q25.10 5.57 25.33 5.74L25.33 5.74Q25.98 5.97 25.97 6.49L25.97 6.49Q25.97 7.04 25.70 8.25L25.70 8.25Q25.49 9.25 25.31 9.80L25.31 9.80Q25.54 9.52 25.89 9.05L25.89 9.05Q25.95 8.98 26.02 8.98L26.02 8.98Q26.13 8.98 26.13 9.13L26.13 9.13Q26.13 9.17 26.12 9.22ZM30.21 3.27L30.21 3.27Q30.34 3.36 30.34 3.48L30.34 3.48Q30.34 3.70 29.66 4.18L29.66 4.18Q29.22 4.48 28.80 4.40L28.80 4.40Q28.57 4.35 28.40 4.23L28.40 4.23Q28.34 4.18 28.32 4.13Q28.29 4.08 28.30 4.05L28.30 4.05Q28.33 4.02 28.40 4.03L28.40 4.03Q29.12 3.41 29.34 3.13L29.34 3.13Q29.52 2.93 29.60 2.93L29.60 2.93Q29.74 2.93 30.21 3.27ZM29.11 6.69L29.11 6.69Q28.92 7.74 28.13 10.20L28.13 10.20Q28.36 9.99 28.76 9.45L28.76 9.45Q28.81 9.38 28.87 9.38L28.87 9.38Q28.99 9.38 28.90 9.60L28.90 9.60Q28.86 9.69 28.24 10.67L28.24 10.67Q27.77 11.42 27.55 12L27.55 12Q27.48 12.18 27.30 12.18L27.30 12.18Q27.11 12.18 26.79 12L26.79 12Q26.59 11.89 26.59 11.84L26.59 11.84Q26.59 11.79 26.67 11.63L26.67 11.63Q27.09 10.89 27.61 9.15L27.61 9.15Q28.10 7.46 28.16 6.64L28.16 6.64Q28.19 6.29 28.09 6.29L28.09 6.29Q28.02 6.29 27.84 6.46L27.84 6.46L27.36 6.91Q27.10 7.15 27.10 6.94L27.10 6.94Q27.10 6.88 27.17 6.78L27.17 6.78Q27.54 6.27 27.95 5.80L27.95 5.80Q28.08 5.67 28.20 5.67L28.20 5.67Q28.32 5.67 28.56 5.84L28.56 5.84Q28.92 5.94 28.96 5.96L28.96 5.96Q29.14 6.07 29.14 6.37L29.14 6.37Q29.14 6.51 29.11 6.69ZM39.73 2.46L39.73 2.46Q39.42 3.53 38.90 4.32L38.90 4.32Q38.66 4.67 38.45 4.67L38.45 4.67Q38.25 4.67 37.74 4.34L37.74 4.34Q37.59 4.23 37.59 4.13L37.59 4.13Q37.59 3.96 37.86 3.89L37.86 3.89Q38.06 3.83 38.32 3.18L38.32 3.18Q38.56 2.56 38.56 2.21L38.56 2.21Q38.56 1.84 38.27 1.84L38.27 1.84Q38.17 1.84 38.02 1.88L38.02 1.88Q37.71 1.92 36.70 2.29L36.70 2.29Q36.59 2.33 36.49 2.33L36.49 2.33Q36.26 2.33 36.26 2.17L36.26 2.17Q36.26 2.02 36.50 1.91L36.50 1.91Q37.38 1.47 38.23 1.17L38.23 1.17Q38.50 1.07 38.62 1.07L38.62 1.07Q38.80 1.07 39.09 1.57L39.09 1.57Q39.52 1.70 39.63 1.77L39.63 1.77Q39.80 1.87 39.80 2.08L39.80 2.08Q39.80 2.23 39.73 2.46ZM37.39 9.63L37.39 9.63Q37.39 11.05 35.95 11.91L35.95 11.91Q35.54 12.55 34.88 12.55L34.88 12.55Q33.72 12.53 32.29 11.51L32.29 11.51Q31.06 10.63 30.59 9.82L30.59 9.82Q30.15 9.06 30.15 8.87L30.15 8.87Q30.15 8.63 30.50 8.32L30.50 8.32Q30.83 8.03 31.02 8.03L31.02 8.03Q31.20 8.03 31.20 8.27L31.20 8.27Q31.20 8.37 31.16 8.52L31.16 8.52Q31.57 9.64 32.91 10.61Q34.24 11.58 35.33 11.57L35.33 11.57Q36.29 11.56 36.29 10.26L36.29 10.26Q36.29 9.54 35.17 7.39Q34.05 5.23 34.05 4.30L34.05 4.30Q34.05 3.70 34.39 3.22L34.39 3.22Q34.68 2.82 35.41 2.27L35.41 2.27Q35.54 2.17 35.67 2.17L35.67 2.17Q35.88 2.17 35.88 2.35L35.88 2.35Q35.88 2.48 35.74 2.61L35.74 2.61Q35.14 3.18 35.14 4L35.14 4Q35.14 4.91 36.27 7.02Q37.39 9.12 37.39 9.63ZM44.93-0.13L44.93-0.13Q45.03-0.05 45.03 0.05L45.03 0.05Q45.03 0.19 44.85 0.19L44.85 0.19Q44.77 0.19 44.69 0.14L44.69 0.14Q44.33-0.04 44.15-0.04L44.15-0.04Q43.67-0.04 43.09 0.91L43.09 0.91Q41.02 4.27 40.03 9.71L40.03 9.71Q41.30 7.27 42.95 5.80L42.95 5.80Q43.30 5.49 43.46 5.49L43.46 5.49Q43.51 5.49 43.85 5.71L43.85 5.71Q44.27 5.88 44.32 5.93L44.32 5.93Q44.52 6.11 44.52 6.55L44.52 6.55Q44.52 6.68 44.51 6.83L44.51 6.83Q44.38 8.22 43.71 10.20L43.71 10.20Q43.95 9.87 44.48 9.23L44.48 9.23Q44.60 9.10 44.69 9.10L44.69 9.10Q44.77 9.10 44.77 9.20L44.77 9.20Q44.77 9.32 44.67 9.47L44.67 9.47Q44.22 10.13 43.47 11.39L43.47 11.39Q43.41 11.52 43.16 12.05L43.16 12.05Q43.06 12.30 42.88 12.30L42.88 12.30Q42.68 12.30 42.30 12.02L42.30 12.02Q42.14 11.91 42.24 11.68L42.24 11.68Q43.59 8.30 43.66 6.64L43.66 6.64Q43.69 6.16 43.53 6.16L43.53 6.16Q43.43 6.16 43.10 6.43L43.10 6.43Q42.50 6.91 41.63 8.15L41.63 8.15Q40.47 9.77 39.84 11.47L39.84 11.47Q39.66 11.95 39.52 11.95L39.52 11.95Q39.38 11.95 38.99 11.63L38.99 11.63Q38.80 11.47 38.86 11.09L38.86 11.09Q39.77 6.13 41.22 2.61L41.22 2.61Q42.30-0.01 43.16-0.81L43.16-0.81Q43.38-1.02 43.59-1.02L43.59-1.02Q43.81-1.02 44.15-0.77L44.15-0.77Q44.54-0.45 44.93-0.13ZM48.69 3.27L48.69 3.27Q48.81 3.36 48.81 3.48L48.81 3.48Q48.81 3.70 48.14 4.18L48.14 4.18Q47.70 4.48 47.28 4.40L47.28 4.40Q47.05 4.35 46.88 4.23L46.88 4.23Q46.82 4.18 46.79 4.13Q46.77 4.08 46.78 4.05L46.78 4.05Q46.80 4.02 46.88 4.03L46.88 4.03Q47.59 3.41 47.82 3.13L47.82 3.13Q48 2.93 48.08 2.93L48.08 2.93Q48.22 2.93 48.69 3.27ZM47.59 6.69L47.59 6.69Q47.40 7.74 46.61 10.20L46.61 10.20Q46.84 9.99 47.23 9.45L47.23 9.45Q47.29 9.38 47.34 9.38L47.34 9.38Q47.47 9.38 47.38 9.60L47.38 9.60Q47.34 9.69 46.72 10.67L46.72 10.67Q46.25 11.42 46.03 12L46.03 12Q45.96 12.18 45.77 12.18L45.77 12.18Q45.59 12.18 45.27 12L45.27 12Q45.06 11.89 45.06 11.84L45.06 11.84Q45.06 11.79 45.15 11.63L45.15 11.63Q45.57 10.89 46.09 9.15L46.09 9.15Q46.58 7.46 46.64 6.64L46.64 6.64Q46.66 6.29 46.57 6.29L46.57 6.29Q46.50 6.29 46.32 6.46L46.32 6.46L45.84 6.91Q45.58 7.15 45.58 6.94L45.58 6.94Q45.58 6.88 45.65 6.78L45.65 6.78Q46.02 6.27 46.43 5.80L46.43 5.80Q46.55 5.67 46.67 5.67L46.67 5.67Q46.80 5.67 47.04 5.84L47.04 5.84Q47.40 5.94 47.44 5.96L47.44 5.96Q47.62 6.07 47.62 6.37L47.62 6.37Q47.62 6.51 47.59 6.69ZM54.35 9.22L54.35 9.22Q53.88 9.93 53.13 11.28L53.13 11.28Q52.99 11.63 52.86 11.98L52.86 11.98Q52.75 12.23 52.57 12.23L52.57 12.23Q52.43 12.23 52.16 12.11L52.16 12.11Q51.85 11.98 51.85 11.86L51.85 11.86Q51.85 11.80 51.95 11.62L51.95 11.62Q52.46 10.59 52.86 9.05L52.86 9.05Q53.29 7.43 53.23 6.58L53.23 6.58Q53.21 6.23 53.07 6.23L53.07 6.23Q52.97 6.23 52.77 6.43L52.77 6.43Q50.80 8.35 49.36 11.57L49.36 11.57Q49.18 11.97 48.94 11.97L48.94 11.97Q48.77 11.97 48.37 11.77L48.37 11.77Q48.21 11.70 48.20 11.64L48.20 11.64Q48.20 11.61 48.29 11.42L48.29 11.42Q48.74 10.43 49.19 8.91L49.19 8.91Q49.66 7.26 49.73 6.34L49.73 6.34Q49.74 6.05 49.71 6.05L49.71 6.05Q49.70 6.05 49.49 6.27Q49.28 6.48 48.91 6.81L48.91 6.81Q48.84 6.88 48.75 6.88L48.75 6.88Q48.64 6.88 48.64 6.80L48.64 6.80Q48.64 6.73 48.72 6.66L48.72 6.66Q49.05 6.23 49.60 5.59L49.60 5.59Q49.72 5.45 49.84 5.45L49.84 5.45Q50.03 5.45 50.17 5.73L50.17 5.73Q50.80 5.91 50.77 6.30L50.77 6.30Q50.68 7.16 49.88 9.41L49.88 9.41Q50.41 8.40 51.41 7.15Q52.41 5.91 52.89 5.68L52.89 5.68Q53.13 5.57 53.23 5.57L53.23 5.57Q53.34 5.57 53.56 5.74L53.56 5.74Q54.21 5.97 54.20 6.49L54.20 6.49Q54.20 7.04 53.94 8.25L53.94 8.25Q53.73 9.25 53.55 9.80L53.55 9.80Q53.77 9.52 54.13 9.05L54.13 9.05Q54.19 8.98 54.25 8.98L54.25 8.98Q54.37 8.98 54.37 9.13L54.37 9.13Q54.37 9.17 54.35 9.22ZM59.21 9.77L59.21 9.77Q57.31 12.20 56.54 12.20L56.54 12.20Q56.17 12.20 55.61 11.70L55.61 11.70Q55.02 11.42 55.02 10.96L55.02 10.96Q55.02 10.88 55.04 10.78L55.04 10.78Q55.18 9.71 55.61 8.41L55.61 8.41Q55.32 8.27 55.32 8.13L55.32 8.13Q55.32 8.02 55.48 8.02L55.48 8.02Q55.61 8.02 55.74 8.09L55.74 8.09Q56.44 6.53 56.99 5.88L56.99 5.88Q57.35 5.44 57.64 5.44L57.64 5.44Q57.77 5.44 58.30 5.66L58.30 5.66Q58.26 5.43 58.43 5.39L58.43 5.39Q58.44 5.39 58.80 5.39L58.80 5.39Q59.13 5.39 59.13 5.51L59.13 5.51Q59.13 5.53 59.11 5.64Q59.09 5.75 59.09 5.84L59.09 5.84Q59.09 6.13 59.09 6.54Q59.10 6.95 59.10 7.09L59.10 7.09Q59.10 8.06 58.57 8.45L58.57 8.45Q58.09 8.80 57.48 8.80L57.48 8.80Q57.16 8.80 56.41 8.63L56.41 8.63Q56.28 8.87 56.12 9.57L56.12 9.57Q55.90 10.46 55.91 11.15L55.91 11.15Q55.92 11.55 56.17 11.55L56.17 11.55Q56.27 11.55 56.41 11.51L56.41 11.51Q57.32 11.19 58.94 9.55L58.94 9.55Q59.04 9.45 59.14 9.45L59.14 9.45Q59.29 9.45 59.29 9.59L59.29 9.59Q59.29 9.68 59.21 9.77ZM58.30 6.32L58.30 6.32Q58.30 6.02 58.16 6.02L58.16 6.02Q58.08 6.02 57.91 6.14L57.91 6.14Q57.15 6.76 56.57 8.30L56.57 8.30Q56.73 8.33 57.12 8.35L57.12 8.35Q57.75 8.38 58.06 8.06L58.06 8.06Q58.30 7.83 58.32 7.29L58.32 7.29Q58.30 7.69 58.30 6.32Z"/></svg>