<svg id="Layer_1" data-name="Layer 1" xmlns="http://www.w3.org/2000/svg" xmlns:xlink="http://www.w3.org/1999/xlink" viewBox="0 0 2480 318"><defs><style>.cls-1{fill:none;}.cls-2{clip-path:url(#clip-path);}.cls-3{fill:#fff;}</style><clipPath id="clip-path"><rect class="cls-1" width="2480" height="318"/></clipPath></defs><title>cognishine logo agol convert white</title><g class="cls-2"><path class="cls-3" d="M221,235a24.87,24.87,0,0,0-5.53,3.51,87.57,87.57,0,0,1-12.65,9.25,69.64,69.64,0,0,1-13.19,6.06,73.8,73.8,0,0,1-15,3.3,152.45,152.45,0,0,1-17.86.95,77.77,77.77,0,0,1-31.9-6.59A74.93,74.93,0,0,1,98.86,232.2Q87.7,219.54,81.21,201t-6.48-42.32q0-22.75,6.48-41A91.74,91.74,0,0,1,99.29,86.52,78.31,78.31,0,0,1,127,66.74a90.06,90.06,0,0,1,35.73-6.91,100.47,100.47,0,0,1,19.67,1.7,90.55,90.55,0,0,1,14.68,4.15A64.82,64.82,0,0,1,208,71q4.57,2.88,8.4,5.32a78.63,78.63,0,0,0,7.23,4.15,16,16,0,0,0,7.23,1.7c3.83,0,6.81-.81,8.94-2.45a30.51,30.51,0,0,0,5.52-5.42l24.25-32.54a119.49,119.49,0,0,0-20-16.69,135.68,135.68,0,0,0-24.67-13,160.52,160.52,0,0,0-28.82-8.51A167.81,167.81,0,0,0,163.2.5q-36,0-65.72,11.69A150.12,150.12,0,0,0,46.34,44.94,148.56,148.56,0,0,0,13.05,95q-11.91,29-11.91,63.69,0,34,10.42,63.06A146.1,146.1,0,0,0,41.44,272a136.92,136.92,0,0,0,47.43,33.18q28,12,63.27,12,38.49,0,66.67-12.44a118.45,118.45,0,0,0,46.89-36.9l-28.5-30a13.75,13.75,0,0,0-4.89-3.29A14.27,14.27,0,0,0,221,235"/><path class="cls-3" d="M442,168.69H590.58A158.6,158.6,0,0,1,442,317.27Zm148.58-19.58A158.58,158.58,0,0,0,442,.54V149.11ZM422.42,317.27A158.58,158.58,0,0,1,273.85,168.69H422.42Zm0-316.73A158.56,158.56,0,0,0,273.85,149.11H422.42Z"/><path class="cls-3" d="M2426.5,300.89a26.9,26.9,0,0,0,5.53,8.4,24.4,24.4,0,0,0,8.4,5.63,27.89,27.89,0,0,0,20.84,0,25.7,25.7,0,0,0,8.5-5.63,26.2,26.2,0,0,0,5.64-8.4,28.17,28.17,0,0,0,0-20.95,26,26,0,0,0-5.64-8.51,27.29,27.29,0,0,0-8.5-5.74,26.41,26.41,0,0,0-29.24,5.74,27.82,27.82,0,0,0-5.53,29.46M2323.15,127.14a47.76,47.76,0,0,1,17.12,12.33,54,54,0,0,1,10.63,18.93,76.67,76.67,0,0,1,3.61,24.14H2237.33q3.84-28.08,19.57-43.92t43.17-15.84a57.72,57.72,0,0,1,23.08,4.36m-66-24a91.5,91.5,0,0,0-31.68,22.54,99.3,99.3,0,0,0-19.89,33.92,125.5,125.5,0,0,0-6.91,42.11q0,27.85,7.66,49.34t21.37,36a90.13,90.13,0,0,0,32.54,22.12,109.56,109.56,0,0,0,41.15,7.55,140.61,140.61,0,0,0,23.6-2,133.88,133.88,0,0,0,23.08-6.06A104.85,104.85,0,0,0,2369,298.34a72.13,72.13,0,0,0,16.8-14.78l-10.64-13.83a8.32,8.32,0,0,0-7.23-3.61q-3.61,0-8.61,3.29a134.36,134.36,0,0,1-12.44,7.13,117.55,117.55,0,0,1-17.76,7.12q-10.32,3.3-24.56,3.3a73.07,73.07,0,0,1-27.65-5,56.24,56.24,0,0,1-21.27-15.1q-8.92-10.1-14-25.2t-5.53-35.52H2379.4q5.31,0,7.23-3t1.91-11.91q0-23-6.7-40.94a85.31,85.31,0,0,0-18.61-30.2A80.21,80.21,0,0,0,2335,101.41a96.08,96.08,0,0,0-35.73-6.49q-23.4,0-42.11,8.19m-241.8,210.64V155.1a103.41,103.41,0,0,1,26.9-21.9,63.61,63.61,0,0,1,31.37-8.08q23,0,34.13,13.5t11.17,38V313.75h37.85V176.58a112.34,112.34,0,0,0-4.68-33.38,73.16,73.16,0,0,0-13.71-25.84,60.34,60.34,0,0,0-22.54-16.59q-13.52-5.85-31.16-5.85-22.76,0-40.09,9.57a121.4,121.4,0,0,0-31.37,25.09l-3-23.39q-2.13-7.86-10.21-7.87h-22.54V313.75ZM1917,20.17a28.7,28.7,0,0,0-6-8.72,27.71,27.71,0,0,0-8.61-5.85A25.87,25.87,0,0,0,1892,3.47a25.09,25.09,0,0,0-10.32,2.13,27.94,27.94,0,0,0-8.5,5.85,27.07,27.07,0,0,0-5.85,8.72,26.57,26.57,0,0,0-2.13,10.53A25.07,25.07,0,0,0,1867.3,41a28.31,28.31,0,0,0,14.35,14.35A25.09,25.09,0,0,0,1892,57.49a25.87,25.87,0,0,0,10.42-2.13,27.51,27.51,0,0,0,8.61-5.84,29.54,29.54,0,0,0,6-8.51,24.07,24.07,0,0,0,2.24-10.31A25.5,25.5,0,0,0,1917,20.17m-44.12,293.58h37.85V98.32h-37.85Zm-202.89,0V155.1a103.29,103.29,0,0,1,26.91-21.9,63.57,63.57,0,0,1,31.36-8.08q23,0,34.14,13.5t11.16,38V313.75h37.86V176.58a112.67,112.67,0,0,0-4.68-33.38A73.18,73.18,0,0,0,1793,117.36a60.34,60.34,0,0,0-22.54-16.59q-13.52-5.85-31.16-5.85-21.9,0-38.7,8.83a116.12,116.12,0,0,0-30.63,23.5V.5h-37.85V313.75ZM1578.71,37.08a107.31,107.31,0,0,0-36.79-23.4q-21.06-8.07-46.58-8.08-22.75,0-40.3,7a88.31,88.31,0,0,0-29.45,18.71,81.32,81.32,0,0,0-24.46,58.06q0,20.2,6.28,33.92a68.18,68.18,0,0,0,16.48,22.86,87,87,0,0,0,23.29,14.89,268.5,268.5,0,0,0,26.79,10.1l26.8,8.51a114.72,114.72,0,0,1,23.28,10.1,52.12,52.12,0,0,1,16.49,14.78q6.27,8.82,6.27,22.65a58.67,58.67,0,0,1-4.25,22.75,49.28,49.28,0,0,1-12.23,17.55,55.67,55.67,0,0,1-19.46,11.38,78.7,78.7,0,0,1-26.16,4q-17.65,0-29.88-4.79A110.11,110.11,0,0,1,1434,267.61a169.35,169.35,0,0,1-14.35-10.53q-5.75-4.78-10.21-4.79a9.68,9.68,0,0,0-5.43,1.6,15.5,15.5,0,0,0-4.14,3.93L1388,277.39a126.47,126.47,0,0,0,41.57,29q24.36,10.74,53.92,10.74,24.24,0,43.27-7.45a93,93,0,0,0,32.12-20.41,86.55,86.55,0,0,0,19.88-30.52,102.84,102.84,0,0,0,6.81-37.54q0-18.92-6.28-31.9a67.32,67.32,0,0,0-16.59-21.9,94,94,0,0,0-23.39-14.78q-13.08-5.85-26.8-10.53t-26.79-9a126.39,126.39,0,0,1-23.39-10.31,53.87,53.87,0,0,1-16.59-14.36q-6.29-8.39-6.28-21.16a47.56,47.56,0,0,1,3.62-18.6,41.47,41.47,0,0,1,10.74-15,52,52,0,0,1,17.76-10.1A73.86,73.86,0,0,1,1496,39.84q14.68,0,25,3.62a98.64,98.64,0,0,1,17.65,8,137.12,137.12,0,0,1,12.12,8q4.79,3.63,8.4,3.62a9,9,0,0,0,5.53-1.59,16.43,16.43,0,0,0,4-4.79Zm-235-33.18h-72.31V313.75h72.31Zm-362.38,0H943.48V313.75h63.38V147.66q0-6.79-.43-14.57t-1.06-15.84l146.1,184.59q5.31,6.81,11.06,9.36a34.49,34.49,0,0,0,14,2.55H1214V3.9h-63.37v164q0,7.45.42,15.85t1.28,17.33L1005.15,15a54.52,54.52,0,0,0-5.31-5.74A19.15,19.15,0,0,0,995,5.92a20.4,20.4,0,0,0-5.75-1.6,61.65,61.65,0,0,0-7.86-.42M750.49,255a79.69,79.69,0,0,1-28.5-20.1q-12-13.17-18.82-32.32t-6.8-43.81q0-22.33,6.16-40.51a90.86,90.86,0,0,1,17.55-31.16A78.12,78.12,0,0,1,747.62,67q16.15-7.11,36.37-7.12a164.55,164.55,0,0,1,19.56,1.06,101.3,101.3,0,0,1,16.59,3.41,98.62,98.62,0,0,1,15.42,6.06q7.55,3.72,16.05,8.82,6.81,4.26,13.19,4.26a16.88,16.88,0,0,0,9-2.56,23.28,23.28,0,0,0,7.12-7L901.8,42.18a142,142,0,0,0-21.26-16.59,144.59,144.59,0,0,0-26.27-13.18A178.09,178.09,0,0,0,822.9,3.69,196.92,196.92,0,0,0,786.54.5Q749.1.5,718.8,12.19T667.13,44.94A143.36,143.36,0,0,0,634.27,95q-11.49,29-11.49,63.69,0,34,12,63.06a150.76,150.76,0,0,0,83.26,83.36q28.92,12,63,12a306.71,306.71,0,0,0,35.41-1.92,204.38,204.38,0,0,0,31.05-5.95A159.2,159.2,0,0,0,874.9,299a162,162,0,0,0,24.78-15V153.19H789.51v39.56a12,12,0,0,0,3.83,9.14q3.82,3.62,10.64,3.62H834.6v47a129.76,129.76,0,0,1-21.69,6.8,122.45,122.45,0,0,1-26.37,2.55,92.24,92.24,0,0,1-36-6.91"/></g></svg>